<svg width="23" height="29" viewBox="0 0 23 29" fill="none" xmlns="http://www.w3.org/2000/svg">
<path d="M0 0L7 0.5L4.5 6.5L0 0Z" fill="#6E7D60"/>
<path d="M3.85077 12L8 1" stroke="#6E7D60" stroke-width="1.33" stroke-linecap="round"/>
<circle r="2.26037" transform="matrix(-1 0 0 1 12.1269 6.42537)" stroke="#6E7D60" stroke-width="1.33"/>
<path d="M19.0746 11.9105C19.8369 12.4843 20.5289 13.165 21.0483 13.7254C21.6042 14.3251 21.5043 15.2489 20.8761 15.7724C20.27 16.2775 19.3788 16.237 18.8209 15.6792L18.0326 14.8908C17.7554 14.6136 17.422 14.3989 17.0549 14.2613L15.5943 13.7136C15.215 13.5713 14.8338 13.918 14.9395 14.3091L17.8572 25.1045C18.1278 26.1057 17.5522 27.1403 16.5588 27.4383C15.5311 27.7467 14.4506 27.1505 14.1634 26.1166L12.9443 21.7277C12.901 21.5719 12.7212 21.5001 12.5825 21.5833L12.1009 21.8723C11.4097 22.287 10.8898 22.9352 10.6349 23.6999L10.1208 25.242C9.81506 26.1593 8.82349 26.6551 7.90612 26.3493C7.00096 26.0476 6.50402 25.0767 6.78861 24.166L7.57091 21.6627C7.91316 20.5675 8.66757 19.6481 9.6749 19.0986L11.7688 17.9565C11.9787 17.842 12.0825 17.5984 12.0195 17.3677L11.1573 14.2061C11.0905 13.9611 10.8201 13.8342 10.5889 13.9393L8.366 14.9497C7.5067 15.3403 6.51697 15.3219 5.67271 14.8998L4.3833 14.2551C3.7846 13.9557 3.484 13.2724 3.66789 12.6288C3.89105 11.8477 4.7332 11.4233 5.49379 11.7085L6.21042 11.9772C6.72153 12.1689 7.28723 12.1537 7.78734 11.9349L10.415 10.7853C12.0107 10.0872 13.7831 9.82604 15.4573 10.3063C16.6967 10.6618 18.1147 11.1878 19.0746 11.9105Z" stroke="#6E7D60" stroke-width="1.33"/>
</svg>
