<svg width="95" height="16" viewBox="0 0 95 16" fill="none" xmlns="http://www.w3.org/2000/svg">
<path d="M10.6016 2.41406C11.1538 2.41406 11.6016 2.86178 11.6016 3.41406V3.85547C11.6016 4.40775 11.1538 4.85547 10.6016 4.85547H8.42188C7.86959 4.85547 7.42188 5.30318 7.42188 5.85547V14.4414C7.42188 14.9937 6.97416 15.4414 6.42188 15.4414H5.72656C5.17428 15.4414 4.72656 14.9937 4.72656 14.4414V5.85547C4.72656 5.30318 4.27885 4.85547 3.72656 4.85547H1.54687C0.99459 4.85547 0.546875 4.40775 0.546875 3.85547V3.41406C0.546875 2.86178 0.99459 2.41406 1.54688 2.41406H10.6016Z" fill="#6E7D60"/>
<path d="M19.5586 5.38281C20.0924 5.38281 20.6328 5.50651 21.1797 5.75391C21.4614 5.88133 21.7189 6.03121 21.9522 6.20354C22.178 6.37034 22.5469 6.22153 22.5469 5.94077C22.5469 5.77285 22.683 5.63672 22.8509 5.63672H24.0273C24.5796 5.63672 25.0273 6.08443 25.0273 6.63672V14.5C25.0273 15.0523 24.5796 15.5 24.0273 15.5H22.8803C22.6962 15.5 22.5469 15.3507 22.5469 15.1665C22.5469 14.8199 21.9865 14.6438 21.7303 14.8773C21.5963 14.9995 21.4518 15.1159 21.2969 15.2266C20.75 15.6042 20.112 15.793 19.3828 15.793C18.5885 15.793 17.8529 15.5911 17.1758 15.1875C16.5117 14.7839 15.9779 14.1979 15.5742 13.4297C15.1706 12.6615 14.9688 11.7305 14.9688 10.6367C14.9688 9.54297 15.1706 8.60547 15.5742 7.82422C15.9909 7.04297 16.5443 6.44401 17.2344 6.02734C17.9375 5.59766 18.7122 5.38281 19.5586 5.38281ZM20.0664 7.80469C19.5456 7.80469 19.0964 7.94141 18.7188 8.21484C18.3542 8.47526 18.0677 8.82031 17.8594 9.25C17.651 9.67969 17.5469 10.1419 17.5469 10.6367C17.5469 11.3789 17.7682 12.0104 18.2109 12.5312C18.6667 13.0521 19.2656 13.3125 20.0078 13.3125C20.4505 13.3125 20.8607 13.1953 21.2383 12.9609C21.6289 12.7266 21.9414 12.401 22.1758 11.9844C22.4232 11.5547 22.5469 11.0404 22.5469 10.4414V9.42861C22.5469 9.17574 22.4543 8.92874 22.2677 8.758C21.9946 8.50795 21.7035 8.30086 21.3945 8.13672C20.9909 7.91536 20.5482 7.80469 20.0664 7.80469Z" fill="#6E7D60"/>
<path d="M32.1445 0.5C32.6133 0.5 33.0169 0.669271 33.3555 1.00781C33.694 1.33333 33.8633 1.72396 33.8633 2.17969C33.8633 2.6224 33.694 3.01302 33.3555 3.35156C33.0169 3.6901 32.6133 3.85938 32.1445 3.85938C31.6758 3.85938 31.2721 3.6901 30.9336 3.35156C30.6081 3.01302 30.4453 2.6224 30.4453 2.17969C30.4453 1.72396 30.6081 1.33333 30.9336 1.00781C31.2721 0.669271 31.6758 0.5 32.1445 0.5ZM32.5898 5.63672C33.1421 5.63672 33.5898 6.08443 33.5898 6.63672V14.5C33.5898 15.0523 33.1421 15.5 32.5898 15.5H32.1094C31.5571 15.5 31.1094 15.0523 31.1094 14.5V8.53711C31.1094 8.10024 30.7552 7.74609 30.3184 7.74609C29.8815 7.74609 29.5273 7.39194 29.5273 6.95508V6.63672C29.5273 6.08443 29.9751 5.63672 30.5273 5.63672H32.5898Z" fill="#6E7D60"/>
<path d="M60.1933 2.41406C60.8773 2.41406 61.3595 3.0855 61.1408 3.73368L57.4014 14.8196C57.2642 15.2262 56.8829 15.5 56.4538 15.5H56.0092C55.5829 15.5 55.2034 15.2297 55.0641 14.8267L53.3318 9.81589C53.0215 8.91821 51.7519 8.9182 51.4416 9.81589L49.7093 14.8267C49.57 15.2297 49.1905 15.5 48.7642 15.5H48.3227C47.8921 15.5 47.5098 15.2244 47.3738 14.8158L43.684 3.72987C43.4685 3.08242 43.9505 2.41406 44.6329 2.41406H45.5831C46.027 2.41406 46.4178 2.70674 46.5427 3.13276L47.8555 7.61112C48.1311 8.55123 49.454 8.57544 49.7638 7.64604L51.2799 3.09783C51.416 2.68949 51.7981 2.41406 52.2286 2.41406H52.6002C53.0322 2.41406 53.4154 2.69147 53.5502 3.10188L55.0422 7.64223C55.348 8.5729 56.671 8.55438 56.9506 7.61552L58.2872 3.12859C58.4134 2.70466 58.8032 2.41406 59.2455 2.41406H60.1933Z" fill="#6E7D60"/>
<path d="M68.2109 5.38281C68.7448 5.38281 69.2852 5.50651 69.832 5.75391C70.1137 5.88133 70.3712 6.03121 70.6045 6.20354C70.8304 6.37034 71.1992 6.22153 71.1992 5.94077C71.1992 5.77285 71.3354 5.63672 71.5033 5.63672H72.6797C73.232 5.63672 73.6797 6.08443 73.6797 6.63672V14.5C73.6797 15.0523 73.232 15.5 72.6797 15.5H71.5327C71.3485 15.5 71.1992 15.3507 71.1992 15.1665C71.1992 14.8199 70.6389 14.6438 70.3827 14.8773C70.2486 14.9995 70.1041 15.1159 69.9492 15.2266C69.4023 15.6042 68.7643 15.793 68.0352 15.793C67.2409 15.793 66.5052 15.5911 65.8281 15.1875C65.1641 14.7839 64.6302 14.1979 64.2266 13.4297C63.8229 12.6615 63.6211 11.7305 63.6211 10.6367C63.6211 9.54297 63.8229 8.60547 64.2266 7.82422C64.6432 7.04297 65.1966 6.44401 65.8867 6.02734C66.5898 5.59766 67.3646 5.38281 68.2109 5.38281ZM68.7188 7.80469C68.1979 7.80469 67.7487 7.94141 67.3711 8.21484C67.0065 8.47526 66.7201 8.82031 66.5117 9.25C66.3034 9.67969 66.1992 10.1419 66.1992 10.6367C66.1992 11.3789 66.4206 12.0104 66.8633 12.5312C67.319 13.0521 67.918 13.3125 68.6602 13.3125C69.1029 13.3125 69.513 13.1953 69.8906 12.9609C70.2812 12.7266 70.5938 12.401 70.8281 11.9844C71.0755 11.5547 71.1992 11.0404 71.1992 10.4414V9.42861C71.1992 9.17574 71.1066 8.92874 70.9201 8.758C70.6469 8.50795 70.3558 8.30086 70.0469 8.13672C69.6432 7.91536 69.2005 7.80469 68.7188 7.80469Z" fill="#6E7D60"/>
<path d="M80.207 1.4375C80.7593 1.4375 81.207 1.88522 81.207 2.4375V14.5C81.207 15.0523 80.7593 15.5 80.207 15.5H79.7266C79.1743 15.5 78.7266 15.0523 78.7266 14.5V2.4375C78.7266 1.88521 79.1743 1.4375 79.7266 1.4375H80.207Z" fill="#6E7D60"/>
<path d="M87.7148 1.4375C88.2671 1.4375 88.7148 1.88522 88.7148 2.4375V7.45815C88.7148 8.37045 89.8363 8.80631 90.4524 8.13343L92.441 5.96144C92.6304 5.75454 92.898 5.63672 93.1785 5.63672H93.4373C94.3271 5.63672 94.7738 6.71158 94.146 7.34221L92.2162 9.28091C91.8572 9.64154 91.8263 10.2142 92.1443 10.6114L94.7574 13.875C95.2816 14.5297 94.8155 15.5 93.9768 15.5H93.4291C93.1169 15.5 92.8226 15.3541 92.6334 15.1057L90.6387 12.4851C90.2718 12.0032 89.5641 11.9554 89.1359 12.3837L89.0077 12.5118C88.8202 12.6993 88.7148 12.9537 88.7148 13.2189V14.5C88.7148 15.0523 88.2671 15.5 87.7148 15.5H87.2344C86.6821 15.5 86.2344 15.0523 86.2344 14.5V2.4375C86.2344 1.88521 86.6821 1.4375 87.2344 1.4375H87.7148Z" fill="#6E7D60"/>
</svg>
