<svg width="30" height="30" viewBox="0 0 30 30" fill="none" xmlns="http://www.w3.org/2000/svg">
<path fill-rule="evenodd" clip-rule="evenodd" d="M7.84755 14.2C7.84755 11.1072 10.3548 8.59999 13.4475 8.59999C16.5403 8.59999 19.0475 11.1072 19.0475 14.2C19.0475 17.2928 16.5403 19.8 13.4475 19.8C10.3548 19.8 7.84755 17.2928 7.84755 14.2ZM13.4475 7C9.4711 7 6.24756 10.2235 6.24756 14.2C6.24756 18.1764 9.4711 21.4 13.4475 21.4C15.7094 21.4 17.7276 20.357 19.0476 18.7258C19.049 18.9286 19.1271 19.1309 19.2818 19.2856L22.7618 22.7656C23.0742 23.0781 23.5808 23.0781 23.8932 22.7656C24.2056 22.4532 24.2056 21.9467 23.8932 21.6343L20.4132 18.1543C20.1897 17.9308 19.8669 17.8672 19.5868 17.9635C20.2596 16.8683 20.6475 15.5795 20.6475 14.2C20.6475 10.2235 17.424 7 13.4475 7Z" fill="white"/>
</svg>
